<svg preserveAspectRatio="none" width="100%" height="100%" overflow="visible" style="display: block;" viewBox="0 0 302 302" fill="none" xmlns="http://www.w3.org/2000/svg">
<g id="Ellipse 41">
<path d="M178.896 292.899C179.577 296.359 177.324 299.73 173.838 300.263C144.545 304.746 114.526 300.514 87.5494 288.022C58.638 274.634 34.7022 252.444 19.167 224.628C3.63173 196.811 -2.70686 164.793 1.05822 133.156C4.82329 101.519 18.4991 71.8827 40.1287 48.4891C61.7583 25.0954 90.2333 9.14282 121.479 2.91395C152.725 -3.31491 185.141 0.499156 214.087 13.8104C243.034 27.1217 267.029 49.2479 282.638 77.0231C297.202 102.94 303.769 132.535 301.592 162.09C301.333 165.607 298.149 168.116 294.646 167.709V167.709C291.143 167.301 288.649 164.131 288.895 160.613C290.769 133.737 284.749 106.847 271.504 83.2797C257.215 57.8536 235.25 37.5987 208.752 25.4132C182.253 13.2278 152.579 9.73627 123.976 15.4383C95.3727 21.1404 69.3059 35.7438 49.5056 57.1589C29.7053 78.5741 17.1862 105.703 13.7395 134.665C10.2929 163.627 16.0954 192.937 30.3168 218.401C44.5381 243.865 66.4495 264.178 92.9157 276.433C117.447 287.793 144.726 291.691 171.373 287.72C174.861 287.2 178.216 289.438 178.896 292.899V292.899Z" fill="var(--fill-0, white)"/>
<path d="M178.896 292.899C179.577 296.359 177.324 299.73 173.838 300.263C144.545 304.746 114.526 300.514 87.5494 288.022C58.638 274.634 34.7022 252.444 19.167 224.628C3.63173 196.811 -2.70686 164.793 1.05822 133.156C4.82329 101.519 18.4991 71.8827 40.1287 48.4891C61.7583 25.0954 90.2333 9.14282 121.479 2.91395C152.725 -3.31491 185.141 0.499156 214.087 13.8104C243.034 27.1217 267.029 49.2479 282.638 77.0231C297.202 102.94 303.769 132.535 301.592 162.09C301.333 165.607 298.149 168.116 294.646 167.709V167.709C291.143 167.301 288.649 164.131 288.895 160.613C290.769 133.737 284.749 106.847 271.504 83.2797C257.215 57.8536 235.25 37.5987 208.752 25.4132C182.253 13.2278 152.579 9.73627 123.976 15.4383C95.3727 21.1404 69.3059 35.7438 49.5056 57.1589C29.7053 78.5741 17.1862 105.703 13.7395 134.665C10.2929 163.627 16.0954 192.937 30.3168 218.401C44.5381 243.865 66.4495 264.178 92.9157 276.433C117.447 287.793 144.726 291.691 171.373 287.72C174.861 287.2 178.216 289.438 178.896 292.899V292.899Z" fill="url(#paint0_linear_265_1449)"/>
</g>
<defs>
<linearGradient id="paint0_linear_265_1449" x1="299.367" y1="160.609" x2="-2.77666" y2="180.067" gradientUnits="userSpaceOnUse">
<stop stop-color="#FFA600"/>
<stop offset="1" stop-color="#FFBF00" stop-opacity="0.5"/>
</linearGradient>
</defs>
</svg>
