<svg preserveAspectRatio="none" width="100%" height="100%" overflow="visible" style="display: block;" viewBox="0 0 11.0526 14" fill="none" xmlns="http://www.w3.org/2000/svg">
<g id="Icon">
<path d="M5.52632 7.66316C6.59455 7.66316 7.46053 6.77244 7.46053 5.67368C7.46053 4.57493 6.59455 3.68421 5.52632 3.68421C4.45808 3.68421 3.59211 4.57493 3.59211 5.67368C3.59211 6.77244 4.45808 7.66316 5.52632 7.66316Z" fill="var(--fill-0, #767676)"/>
<path d="M5.52632 13.6316C8.10526 10.9789 10.6842 8.6037 10.6842 5.67368C10.6842 2.74367 8.37494 0.368421 5.52632 0.368421C2.67769 0.368421 0.368421 2.74367 0.368421 5.67368C0.368421 8.6037 2.94737 10.9789 5.52632 13.6316Z" fill="var(--fill-0, #767676)"/>
<path d="M5.52632 7.66316C6.59455 7.66316 7.46053 6.77244 7.46053 5.67368C7.46053 4.57493 6.59455 3.68421 5.52632 3.68421C4.45808 3.68421 3.59211 4.57493 3.59211 5.67368C3.59211 6.77244 4.45808 7.66316 5.52632 7.66316Z" stroke="var(--stroke-0, white)" stroke-width="0.736842" stroke-linecap="round" stroke-linejoin="round"/>
<path d="M5.52632 13.6316C8.10526 10.9789 10.6842 8.6037 10.6842 5.67368C10.6842 2.74367 8.37494 0.368421 5.52632 0.368421C2.67769 0.368421 0.368421 2.74367 0.368421 5.67368C0.368421 8.6037 2.94737 10.9789 5.52632 13.6316Z" stroke="var(--stroke-0, white)" stroke-width="0.736842" stroke-linecap="round" stroke-linejoin="round"/>
</g>
</svg>
