<svg preserveAspectRatio="none" width="100%" height="100%" overflow="visible" style="display: block;" viewBox="0 0 9.90373 8.6716" fill="none" xmlns="http://www.w3.org/2000/svg">
<path id="Star 1" d="M3.40784 1.14695C3.86919 -0.382318 6.03454 -0.382317 6.49589 1.14695L6.53192 1.2664C6.72577 1.90896 7.33421 2.33538 8.00435 2.29833L8.47604 2.27226C9.92159 2.19236 10.4624 4.13475 9.18349 4.81333V4.81333C8.5455 5.15185 8.29221 5.94377 8.6018 6.59628V6.59628C9.22566 7.91119 7.72255 9.24707 6.53019 8.41252L5.88438 7.96052C5.32446 7.56863 4.57927 7.56863 4.01935 7.96052L3.37355 8.41252C2.18118 9.24707 0.678068 7.91119 1.30194 6.59628V6.59628C1.61153 5.94377 1.35823 5.15185 0.720247 4.81333V4.81333C-0.558624 4.13475 -0.0178547 2.19236 1.42769 2.27226L1.89939 2.29833C2.56953 2.33538 3.17796 1.90896 3.37181 1.2664L3.40784 1.14695Z" fill="var(--fill-0, white)"/>
</svg>
