<svg preserveAspectRatio="none" width="100%" height="100%" overflow="visible" style="display: block;" viewBox="0 0 460 310" fill="none" xmlns="http://www.w3.org/2000/svg">
<g id="Group 1707481656" opacity="0.5">
<path id="Vector 3" d="M41.9571 122.464C38.7083 126.55 34.5449 131.971 30.4632 137.664C30.0986 137.741 29.7171 137.821 29.3107 137.904C26.1978 138.518 21.7269 139.549 14.4116 141.312C11.8719 142.758 12.2065 151.888 8.44492 165.041C3.96332 180.712 0.765834 186.565 0.29484 196.053C-0.302464 208.085 -0.342061 225.981 3.63003 230.465C5.02403 232.038 7.49061 234.594 15.6316 239.768C31.2995 249.726 46.5845 257.917 55.3741 262.613C65.131 267.826 72.4157 272.719 85.5326 278.166C94.0689 281.71 104.18 284.989 116.102 287.143C130.1 289.672 138.669 290.796 153.118 293.043C166.567 295.135 191.674 299.196 204.758 301.226C217.843 303.257 218.873 303.257 228.709 304.461C238.545 305.664 256.599 308.431 269.601 309.17C289.583 310.306 299.224 309.988 303.088 309.861L303.409 309.85C306.376 309.754 317.873 310.279 346.343 303.06C365.734 298.143 394.167 289.448 411.771 283.443C429.376 277.439 436.624 274.934 440.237 271.631C449.346 263.303 453.917 255.096 454.165 240.614C454.322 231.473 454.175 215.179 454.41 206.564C454.671 197.033 454.411 190.542 454.931 181.982C455.364 174.87 455.82 168.531 456.624 162.401C457.601 154.952 460.058 142.6 459.999 128.446C459.884 100.783 460.54 95.5063 455.937 91.7593C452.04 88.5868 446.152 88.2351 442.571 85.542C438.185 82.2432 434.883 77.743 431.898 74.9038C427.15 70.3879 418.189 58.2397 411.29 57.7376C395.654 56.5996 368.968 56.3994 365.943 53.519C364.499 52.1439 361.856 49.5562 358.622 43.1859C349.786 25.7853 344.804 16.6582 337.985 15.0945C332.473 13.8304 323.553 12.6175 313.874 12.1225C308.771 11.8615 304.156 10.8425 294.428 7.43199C279.697 2.26763 259.343 -4.11193 245.49 3.53819C236.638 8.42677 229.62 14.0324 218.311 12.7757C211.923 12.0657 203.818 10.1953 196.867 13.9142C188.731 18.2665 183.829 23.3624 178.583 28.8161L178.242 29.171C171.344 36.3392 165.547 41.5495 160.649 47.6628C152.204 58.203 149.011 61.7762 146.092 65.4513C143.171 69.1296 141.941 75.8884 136.1 77.1453C130.841 78.277 123.088 77.1981 115.495 74.9213C105.152 71.8196 94.0241 63.3393 87.5379 67.5226C85.3573 68.929 80.547 72.9127 71.1285 84.7026C54.4413 105.591 43.9526 119.955 41.9571 122.464Z" fill="var(--fill-0, #FFE28B)"/>
<g id="Group 1707481655">
<line id="Line 7" x1="2" y1="-2" x2="56.8128" y2="-2" transform="matrix(-0.187034 0.982353 -0.991694 -0.128622 358 5.22528)" stroke="var(--stroke-0, #91510C)" stroke-width="4" stroke-linecap="round"/>
<path id="Polygon 1" d="M376.988 22.0492C377.563 22.5151 377.385 23.4439 376.665 23.739L357.68 31.5133C356.945 31.8144 356.199 31.2322 356.345 30.4711L360.179 10.4211C360.325 9.65991 361.251 9.29828 361.838 9.77363L376.988 22.0492Z" fill="var(--fill-0, #FFBF00)"/>
</g>
</g>
</svg>
