<svg preserveAspectRatio="none" width="100%" height="100%" overflow="visible" style="display: block;" viewBox="0 0 25.4714 24.3917" fill="none" xmlns="http://www.w3.org/2000/svg">
<path id="Star 1" d="M8.93835 3.29205C9.56239 -1.09735 15.909 -1.09735 16.533 3.29205V3.29205C16.8349 5.41514 18.8476 6.86949 20.9603 6.5014V6.5014C25.2877 5.74741 27.3041 11.7175 23.3452 13.621V13.621C21.4 14.5562 20.6315 16.929 21.6561 18.8286V18.8286C23.7479 22.7069 18.57 26.3457 15.4884 23.1959V23.1959C13.9868 21.6611 11.4846 21.6611 9.98302 23.1959V23.1959C6.90142 26.3457 1.72345 22.7069 3.81528 18.8286V18.8286C4.83986 16.929 4.07134 14.5562 2.12617 13.621V13.621C-1.83271 11.7175 0.183642 5.74741 4.51113 6.5014V6.5014C6.62374 6.86949 8.63651 5.41514 8.93835 3.29205V3.29205Z" fill="var(--fill-0, white)"/>
</svg>
