<svg preserveAspectRatio="none" width="100%" height="100%" overflow="visible" style="display: block;" viewBox="0 0 60.0943 91" fill="none" xmlns="http://www.w3.org/2000/svg">
<g id="Group 1707481677">
<path id="Rectangle 32993" d="M0 6C0 2.68629 2.68629 0 6 0H54.0943C57.4081 0 60.0943 2.68629 60.0943 6V64.8313C60.0943 66.6893 59.2336 68.4425 57.7635 69.5787L33.7163 88.1642C31.5553 89.8344 28.539 89.8344 26.378 88.1642L2.33087 69.5787C0.860776 68.4425 0 66.6893 0 64.8313V6Z" fill="url(#paint0_linear_186_924)"/>
<path id="Star 1" d="M27.967 15.7005C28.7591 13.0748 32.477 13.0748 33.2691 15.7005L33.331 15.9056C33.6638 17.0089 34.7085 17.741 35.8591 17.6774L36.669 17.6326C39.151 17.4954 40.0795 20.8305 37.8837 21.9956V21.9956C36.7883 22.5768 36.3534 23.9365 36.8849 25.0569V25.0569C37.9561 27.3146 35.3753 29.6082 33.328 28.1753L32.2192 27.3993C31.2578 26.7264 29.9783 26.7264 29.017 27.3993L27.9081 28.1753C25.8609 29.6082 23.28 27.3146 24.3512 25.0569V25.0569C24.8828 23.9365 24.4479 22.5768 23.3525 21.9956V21.9956C21.1567 20.8305 22.0852 17.4954 24.5671 17.6326L25.377 17.6774C26.5276 17.741 27.5723 17.0089 27.9051 15.9056L27.967 15.7005Z" fill="var(--fill-0, white)"/>
</g>
<defs>
<linearGradient id="paint0_linear_186_924" x1="30.0472" y1="0" x2="30.0472" y2="91" gradientUnits="userSpaceOnUse">
<stop stop-color="#FFD455"/>
<stop offset="1" stop-color="#FF9500"/>
</linearGradient>
</defs>
</svg>
