<svg preserveAspectRatio="none" width="100%" height="100%" overflow="visible" style="display: block;" viewBox="0 0 64.3411 11.3372" fill="none" xmlns="http://www.w3.org/2000/svg">
<g id="Right Side">
<g id="Battery">
<path id="Rectangle" opacity="0.35" d="M43.5262 0.503906H59.4276C60.624 0.504158 61.5936 1.47444 61.5936 2.6709V8.6709C61.5934 9.86721 60.6239 10.8367 59.4276 10.8369H43.5262C42.3297 10.8369 41.3594 9.86737 41.3592 8.6709V2.6709C41.3592 1.549 42.2119 0.625503 43.3045 0.514648L43.5262 0.503906Z" stroke="var(--stroke-0, #111111)"/>
<path id="Combined Shape" opacity="0.4" d="M63.0592 3.67187V7.67187C63.8359 7.3331 64.341 6.54501 64.341 5.67187C64.341 4.79874 63.8359 4.01065 63.0592 3.67187" fill="var(--fill-0, #111111)"/>
<path id="Rectangle_2" d="M42.7898 3.10391C42.7898 2.49639 43.2823 2.00391 43.8898 2.00391H59.0635C59.671 2.00391 60.1635 2.49639 60.1635 3.10391V8.23724C60.1635 8.84475 59.671 9.33724 59.0635 9.33724H43.8898C43.2823 9.33724 42.7898 8.84475 42.7898 8.23724V3.10391Z" fill="var(--fill-0, #111111)"/>
</g>
<path id="Wifi" fill-rule="evenodd" clip-rule="evenodd" d="M28.6318 2.27733C30.7706 2.27742 32.8276 3.12886 34.3777 4.65566C34.4944 4.77354 34.681 4.77205 34.796 4.65233L35.9117 3.48566C35.9699 3.42494 36.0024 3.34269 36.0019 3.25711C36.0014 3.17153 35.9681 3.08967 35.9092 3.02966C31.8407 -1.00989 25.4223 -1.00989 21.3538 3.02966C21.2949 3.08963 21.2615 3.17146 21.2609 3.25704C21.2604 3.34262 21.2928 3.42489 21.3509 3.48566L22.467 4.65233C22.5819 4.77223 22.7686 4.77372 22.8853 4.65566C24.4356 3.12876 26.4928 2.27732 28.6318 2.27733ZM28.6318 6.07299C29.807 6.07292 30.9401 6.52545 31.8112 7.34266C31.929 7.45864 32.1146 7.45613 32.2295 7.33699L33.344 6.17033C33.4027 6.10913 33.4352 6.02612 33.4344 5.93985C33.4335 5.85359 33.3993 5.77127 33.3395 5.71133C30.6869 3.15494 26.579 3.15494 23.9264 5.71133C23.8665 5.77127 23.8323 5.85363 23.8315 5.93992C23.8308 6.02621 23.8634 6.10922 23.9223 6.17033L25.0364 7.33699C25.1513 7.45613 25.3369 7.45864 25.4547 7.34266C26.3252 6.52599 27.4575 6.0735 28.6318 6.07299ZM30.8643 8.62681C30.866 8.71332 30.8332 8.79672 30.7736 8.85733L28.8458 10.873C28.7893 10.9322 28.7122 10.9656 28.6318 10.9656C28.5514 10.9656 28.4744 10.9322 28.4179 10.873L26.4897 8.85733C26.4301 8.79668 26.3974 8.71325 26.3991 8.62674C26.4009 8.54023 26.437 8.45831 26.499 8.40033C27.7302 7.32144 29.5334 7.32144 30.7646 8.40033C30.8266 8.45836 30.8626 8.54031 30.8643 8.62681Z" fill="var(--fill-0, #111111)"/>
<path id="Mobile Signal" fill-rule="evenodd" clip-rule="evenodd" d="M15.4433 0.335938H14.4781C13.945 0.335938 13.5129 0.783653 13.5129 1.33594V10.0026C13.5129 10.5549 13.945 11.0026 14.4781 11.0026H15.4433C15.9764 11.0026 16.4085 10.5549 16.4085 10.0026V1.33594C16.4085 0.783653 15.9764 0.335938 15.4433 0.335938ZM9.97381 2.66927H10.939C11.4721 2.66927 11.9042 3.11699 11.9042 3.66927V10.0026C11.9042 10.5549 11.4721 11.0026 10.939 11.0026H9.97381C9.44074 11.0026 9.0086 10.5549 9.0086 10.0026V3.66927C9.0086 3.11699 9.44074 2.66927 9.97381 2.66927ZM6.43472 5.0026H5.46951C4.93644 5.0026 4.5043 5.45032 4.5043 6.0026V10.0026C4.5043 10.5549 4.93644 11.0026 5.46951 11.0026H6.43472C6.96778 11.0026 7.39992 10.5549 7.39992 10.0026V6.0026C7.39992 5.45032 6.96778 5.0026 6.43472 5.0026ZM1.93041 7.0026H0.965207C0.432138 7.0026 0 7.45032 0 8.0026V10.0026C0 10.5549 0.432138 11.0026 0.965207 11.0026H1.93041C2.46348 11.0026 2.89562 10.5549 2.89562 10.0026V8.0026C2.89562 7.45032 2.46348 7.0026 1.93041 7.0026Z" fill="var(--fill-0, #111111)"/>
</g>
</svg>
