<svg preserveAspectRatio="none" width="100%" height="100%" overflow="visible" style="display: block;" viewBox="0 0 35.0001 53" fill="none" xmlns="http://www.w3.org/2000/svg">
<g id="Group 1707481647">
<path id="Rectangle 32993" d="M0.00010851 4C0.00010851 1.79086 1.79097 0 4.00011 0H31.0001C33.2092 0 35.0001 1.79086 35.0001 4V37.5107C35.0001 38.7494 34.4263 39.9182 33.4462 40.6756L19.9462 51.1095C18.5055 52.2229 16.4947 52.2229 15.054 51.1095L1.55402 40.6756C0.573956 39.9182 0.00010851 38.7494 0.00010851 37.5107V4Z" fill="var(--fill-0, #FFBF00)"/>
<path id="Star 1" d="M16.0245 10.8915C16.4858 9.36225 18.6512 9.36225 19.1125 10.8915L19.1485 11.011C19.3424 11.6535 19.9508 12.0799 20.621 12.0429L21.0927 12.0168C22.5382 11.9369 23.079 13.8793 21.8001 14.5579V14.5579C21.1621 14.8964 20.9088 15.6883 21.2184 16.3408V16.3408C21.8423 17.6558 20.3392 18.9916 19.1468 18.1571L18.501 17.7051C17.9411 17.3132 17.1959 17.3132 16.636 17.7051L15.9902 18.1571C14.7978 18.9916 13.2947 17.6558 13.9186 16.3408V16.3408C14.2281 15.6883 13.9748 14.8964 13.3369 14.5579V14.5579C12.058 13.8793 12.5988 11.9369 14.0443 12.0168L14.516 12.0429C15.1861 12.0799 15.7946 11.6535 15.9884 11.011L16.0245 10.8915Z" fill="var(--fill-0, white)"/>
</g>
</svg>
